<?xml version="1.0" encoding="utf-8"?>
<!-- Generator: Adobe Illustrator 17.0.0, SVG Export Plug-In . SVG Version: 6.00 Build 0)  -->
<!DOCTYPE svg PUBLIC "-//W3C//DTD SVG 1.1//EN" "http://www.w3.org/Graphics/SVG/1.1/DTD/svg11.dtd">
<svg version="1.1" id="图层_1" xmlns="http://www.w3.org/2000/svg" xmlns:xlink="http://www.w3.org/1999/xlink" x="0px" y="0px"
	 width="74px" height="645.8px" viewBox="0 0 74 645.8" enable-background="new 0 0 74 645.8" xml:space="preserve">
<g enable-background="new    ">
	<path d="M-4962.094,11565.596c1.176-0.113,1.252-0.252,1.252-1.1v-4.846c0-0.543-0.051-0.633-0.645-0.695l-0.544-0.062v-0.191
		c0.784-0.137,1.417-0.365,1.809-0.619v6.414c0,0.848,0.089,0.986,1.265,1.1v0.178h-3.137V11565.596z"/>
	<path d="M-4953.532,11565.912c-0.025,0-0.278-0.102-0.405-0.227c-0.152-0.164-0.202-0.316-0.278-0.594
		c-0.493,0.379-1.062,0.82-1.531,0.82c-0.873,0-1.467-0.656-1.467-1.441c0-0.57,0.392-0.975,1.265-1.24
		c0.645-0.189,1.442-0.494,1.733-0.67c0-0.621-0.013-1.721-1.151-1.721c-0.203,0.014-0.886,0.064-1.101,1.076
		c-0.025,0.088-0.101,0.215-0.278,0.215s-0.379-0.178-0.379-0.43c0-0.191,0.152-0.344,0.354-0.457
		c0.316-0.215,1.164-0.732,1.784-0.871c0.62,0,1.404,0.404,1.404,1.516v2.721c0,0.518,0.19,0.721,0.456,0.721
		c0.215,0,0.417-0.074,0.557-0.164l0.114,0.215L-4953.532,11565.912z M-4954.215,11562.877c-0.266,0.152-1.062,0.455-1.341,0.57
		c-0.569,0.215-0.911,0.453-0.911,0.922c0,0.658,0.531,1,0.986,1c0.43,0,1-0.316,1.265-0.645V11562.877z"/>
	<path d="M-4948.979,11562.623c-0.266,0.127-0.468,0.178-0.746,0.178c-1.202,0-2.1-0.885-2.1-2.162c0-1.227,0.936-2.557,2.353-2.557
		c1.404,0,2.302,1.404,2.302,3.01c0,2.328-1.265,3.848-2.833,4.518c-0.771,0.279-1.315,0.365-1.543,0.354l-0.038-0.24
		c1.758-0.291,3.162-1.529,3.656-3.604L-4948.979,11562.623z M-4951.13,11560.258c0,1.076,0.646,2.025,1.796,2.025
		c0.557,0,1.151-0.254,1.429-0.52c0.013-0.215,0.038-0.455,0.038-0.721c0-0.975-0.291-2.658-1.733-2.658
		C-4950.763,11558.385-4951.13,11559.6-4951.13,11560.258z"/>
	<path d="M-4943.504,11560.396c0.076-0.023,0.203-0.023,0.329-0.023c1.328,0,2.454,1.023,2.454,2.529c0,1.758-1.48,3.01-3.175,3.01
		c-0.519,0-1.176-0.062-1.784-0.354v-6.908c0-0.809-0.05-0.896-0.911-1.035v-0.141c0.582-0.062,1.252-0.289,1.518-0.43v3.922
		L-4943.504,11560.396z M-4945.072,11564.193c0,0.215,0.013,0.316,0.076,0.518c0.089,0.303,0.645,0.834,1.556,0.834
		c1.214,0,1.986-0.961,1.986-2.363c0-1.305-0.86-2.277-2.15-2.277c-0.595,0-1.164,0.139-1.467,0.316V11564.193z"/>
	<path d="M-4939.85,11565.596c0.771-0.051,0.886-0.203,0.886-1v-3.68h-0.911l-0.05-0.139l0.341-0.266h0.62
		c0-0.533,0.013-1.113,0.101-1.354c0.114-0.266,0.329-0.924,0.949-1.441c0.468-0.395,0.923-0.609,1.354-0.672
		c0.443,0,1.037,0.406,1.037,0.658s-0.291,0.379-0.379,0.379c-0.051,0-0.101-0.025-0.152-0.088c-0.215-0.215-0.62-0.367-1.101-0.367
		c-0.291,0-0.544,0.102-0.746,0.316c-0.203,0.24-0.43,1.012-0.443,1.986l-0.013,0.582h1.543c0.025,0.062,0.038,0.113,0.038,0.178
		c0,0.088-0.038,0.188-0.139,0.227h-1.442v3.68c0,0.785,0.101,0.949,1.164,1.027v0.15h-2.657V11565.596z"/>
	<path d="M-4931.692,11564.635c-0.531,0.709-1.404,1.277-2.163,1.277c-1.543,0-2.518-1.215-2.518-2.441
		c0-2.352,2.239-3.098,3.137-3.098c0.341,0,1.354,0.215,1.354,0.619c0,0.201-0.253,0.443-0.43,0.443
		c-0.051,0-0.101-0.039-0.177-0.102c-0.442-0.342-0.86-0.457-1.505-0.457c-0.759,0-1.695,0.596-1.695,2.062
		c0.013,1.809,1.303,2.379,2.125,2.379c0.607,0,1.05-0.152,1.721-0.859L-4931.692,11564.635z"/>
</g>
<g>
	<g>
		<path fill="#666666" d="M25.1,10.1h-17c-0.821,0-1.7-0.683-1.7-1.7l0.034-0.18l1.7-4.4C8.467,3.041,8.784,2.3,9.7,2.3h13.7
			c1.015,0,1.418,0.941,1.66,1.503L26.8,8.4C26.8,9.221,26.117,10.1,25.1,10.1z M7.405,8.481C7.449,8.85,7.791,9.1,8.1,9.1h17
			c0.379,0,0.653-0.313,0.694-0.621L24.134,4.18C23.817,3.443,23.631,3.3,23.4,3.3H9.7C9.484,3.3,9.386,3.435,9.08,4.15L7.405,8.481
			z"/>
	</g>
	<g>
		<path fill="#666666" d="M4.085,25.089c-1.625,0-2.765-1.851-2.812-1.93L1.2,23.04V12.129l1.634-2.114
			C2.597,9.877,2.19,9.665,1.497,9.357C1.138,9.211,0,8.747,0,7.84C0,6.9,1.259,6.339,1.512,6.237L1.7,6.2h2.596
			c0.322-0.636,1.135-2.337,1.516-4.011l0.036-0.104c0.875-1.848,2.59-1.991,3.095-1.991c0.133,0,0.209,0.009,0.209,0.009L24.4,0.1
			c1.573,0.119,2.678,1.861,2.724,1.935L28.742,6.2H31.2c1.036,0.197,1.592,0.584,1.749,1.161c0.252,0.923-0.706,1.813-0.816,1.912
			l-0.094,0.066L30.278,10.3l1.021,1.873v10.896l-0.101,0.134c-0.925,1.223-1.879,1.843-2.835,1.843h0
			c-1.656,0-2.574-1.847-2.612-1.926L25.22,21.2H7.282l-0.554,1.959C5.953,24.44,5.063,25.089,4.085,25.089z M2.2,22.753
			c0.311,0.457,1.077,1.336,1.885,1.336c0.592,0,1.181-0.467,1.751-1.389l0.682-2.5h19.464l0.7,2.566c0,0,0,0,0,0
			c0.011,0,0.68,1.279,1.681,1.279c0,0,0,0,0,0c0.588,0,1.255-0.454,1.937-1.315V12.427L28.922,9.9l2.583-1.409
			c0.245-0.236,0.538-0.655,0.479-0.868c-0.037-0.132-0.287-0.314-0.882-0.434L28.057,7.2l-1.823-4.72
			c-0.2-0.3-1.018-1.316-1.872-1.381L9.1,1.1L8.943,1.094c-0.451,0-1.556,0.135-2.168,1.373C6.258,4.689,5.089,6.848,5.039,6.939
			L4.897,7.2H1.804C1.362,7.4,1,7.709,1,7.841c0,0.002,0.039,0.25,0.889,0.596c1.824,0.811,2.29,1.172,2.18,1.688
			c-0.043,0.203-0.186,0.355-0.387,0.428L2.2,12.471V22.753z"/>
	</g>
	<g>
		<path fill="#666666" d="M7,16.6c-1.323,0-2.4-1.077-2.4-2.4c0-1.323,1.077-2.4,2.4-2.4s2.4,1.077,2.4,2.4
			C9.4,15.524,8.323,16.6,7,16.6z M7,12.8c-0.772,0-1.4,0.628-1.4,1.4s0.628,1.4,1.4,1.4s1.4-0.628,1.4-1.4S7.772,12.8,7,12.8z"/>
	</g>
	<g>
		<path fill="#666666" d="M25.4,16.6c-1.323,0-2.4-1.077-2.4-2.4c0-1.323,1.077-2.4,2.4-2.4s2.4,1.077,2.4,2.4
			C27.8,15.524,26.723,16.6,25.4,16.6z M25.4,12.8c-0.772,0-1.4,0.628-1.4,1.4s0.628,1.4,1.4,1.4s1.4-0.628,1.4-1.4
			S26.172,12.8,25.4,12.8z"/>
	</g>
</g>
<g>
	<g>
		<path fill="#0099FF" d="M25.1,38.1h-17c-0.948-0.151-1.6-0.879-1.6-1.7l0.034-0.18l1.7-4.4C8.442,31.191,8.739,30.3,9.7,30.3h13.7
			c1.015,0,1.418,0.941,1.66,1.503L26.8,36.4C26.8,37.221,26.117,38.1,25.1,38.1z M7.505,36.479c0.043,0.302,0.325,0.57,0.677,0.628
			L25.1,37.1c0.379,0,0.653-0.313,0.694-0.621l-1.661-4.299c-0.317-0.737-0.503-0.88-0.734-0.88H9.7
			c-0.207,0-0.324,0.253-0.525,0.858L7.505,36.479z"/>
	</g>
	<g>
		<path fill="#0099FF" d="M4.085,53.089c-1.625,0-2.765-1.851-2.812-1.93L1.2,51.04V40.129l1.634-2.114
			c-0.237-0.138-0.644-0.35-1.337-0.658C1.138,37.211,0,36.747,0,35.84c0-0.94,1.259-1.501,1.512-1.604L1.7,34.2h2.596
			c0.322-0.636,1.135-2.337,1.516-4.011l0.036-0.104c0.875-1.848,2.59-1.991,3.095-1.991c0.133,0,0.209,0.009,0.209,0.009L24.4,28.1
			c0.728,0.055,1.341,0.459,1.8,0.884v-1.366l2.542,6.582H31.2c1.036,0.197,1.592,0.584,1.749,1.161
			c0.252,0.923-0.706,1.813-0.816,1.912l-0.094,0.066L30.278,38.3l1.021,1.873v10.896l-0.101,0.134
			c-0.925,1.223-1.879,1.843-2.836,1.843c-1.656,0-2.574-1.847-2.612-1.926L25.22,49.2H7.282l-0.554,1.959
			C5.953,52.44,5.063,53.089,4.085,53.089z M2.2,50.753c0.311,0.457,1.077,1.336,1.885,1.336c0.592,0,1.181-0.467,1.751-1.389
			l0.682-2.5h19.464l0.7,2.566c0,0,0,0,0,0c0.011,0,0.68,1.279,1.681,1.279c0.588,0,1.256-0.454,1.937-1.315V40.427L28.922,37.9
			l2.583-1.409c0.245-0.236,0.538-0.655,0.479-0.868c-0.037-0.132-0.287-0.314-0.882-0.434l-3.045,0.01l-1.784-4.619
			c-0.029-0.034-0.056-0.07-0.084-0.106c-0.25-0.325-1.01-1.314-1.827-1.376L9.1,29.1l-0.157-0.006
			c-0.451,0-1.556,0.135-2.168,1.373c-0.516,2.222-1.686,4.381-1.735,4.472L4.897,35.2H1.804C1.362,35.4,1,35.709,1,35.841
			c0,0.002,0.039,0.25,0.889,0.596c1.824,0.811,2.29,1.172,2.18,1.688c-0.043,0.203-0.186,0.355-0.387,0.428L2.2,40.471V50.753z"/>
	</g>
	<g>
		<path fill="#0099FF" d="M7,44.6c-1.323,0-2.4-1.077-2.4-2.4c0-1.323,1.077-2.4,2.4-2.4s2.4,1.077,2.4,2.4
			C9.4,43.524,8.323,44.6,7,44.6z M7,40.8c-0.772,0-1.4,0.628-1.4,1.4s0.628,1.4,1.4,1.4s1.4-0.628,1.4-1.4S7.772,40.8,7,40.8z"/>
	</g>
	<g>
		<path fill="#0099FF" d="M25.4,44.6c-1.323,0-2.4-1.077-2.4-2.4c0-1.323,1.077-2.4,2.4-2.4s2.4,1.077,2.4,2.4
			C27.8,43.524,26.723,44.6,25.4,44.6z M25.4,40.8c-0.772,0-1.4,0.628-1.4,1.4s0.628,1.4,1.4,1.4s1.4-0.628,1.4-1.4
			S26.172,40.8,25.4,40.8z"/>
	</g>
</g>
<g>
	<g>
		<path fill="#ECF5FC" d="M37,571.8c20.4,0,37,16.6,37,37s-16.6,37-37,37s-37-16.6-37-37S16.6,571.8,37,571.8z"/>
	</g>
	<g>
		<g>
			<path fill="#1A9BFC" d="M37.4,618.4c-1.675,0-3.2-1.525-3.2-3.2c-0.101-0.828,0.119-1.606,0.64-2.192
				c0.578-0.649,1.487-1.008,2.56-1.008c1.735,0,3.2,1.466,3.2,3.2S39.135,618.4,37.4,618.4z M37.4,613
				c-0.783,0-1.427,0.239-1.812,0.673c-0.33,0.371-0.462,0.865-0.391,1.469c0.003,1.189,1.072,2.259,2.203,2.259
				c1.171,0,2.2-1.028,2.2-2.2S38.571,613,37.4,613z"/>
		</g>
		<g>
			<path fill="#1A9BFC" d="M47,608.1h-1v-9.3c0-4.632-3.947-8.4-8.8-8.4s-8.8,3.769-8.8,8.4v9.3h-1v-9.3c0-5.184,4.396-9.4,9.8-9.4
				c5.403,0,9.8,4.217,9.8,9.4V608.1z"/>
		</g>
		<g>
			<path fill="#1A9BFC" d="M53.3,626.2H20.7V607.3h32.6V626.2z M21.7,625.2h30.6V608.3H21.7V625.2z"/>
		</g>
	</g>
</g>
<g>
	<g>
		<path fill="#EDF7FF" d="M37,494.8c20.3,0,37,16.7,37,37c0,20.4-16.7,37-37,37s-37-16.6-37-37S16.7,494.8,37,494.8z"/>
	</g>
	<g>
		<g>
			<path fill="#1A9BFC" d="M37.1,551.7c-0.862,0-3.573-1.979-3.6-1.999l-2.791-1.993c-0.216-0.181-4.564-3.855-5.963-5.254
				c-1.035-1.035-1.538-1.646-1.808-1.975c-0.087-0.105-0.146-0.179-0.193-0.226l-0.065-0.081c-1.333-2.05-1.98-4.069-1.98-6.173
				V517.8c0-0.228,0-0.607,0.346-0.954C21.393,516.5,21.773,516.5,22,516.5c0.515,0.047,0.997,0.069,1.48,0.069
				c6.653,0,12.635-4.198,12.686-4.241l0.148-0.092c0.684-0.275,1.254-0.181,1.522,0.011c0.157,0.059,0.382,0.184,0.813,0.422
				c2.008,1.109,7.516,4.148,13.423,3.832c0.266-0.006,0.635-0.001,0.981,0.346l0.146,0.146v0.207
				c0.007,0.004,0.028,0.039,0.047,0.077c0.065,0.129,0.153,0.306,0.153,0.523c0,12.349-0.146,15.421-0.4,16.275
				c-0.016,2.076-0.664,4.072-1.981,6.097c-0.093,0.195-0.432,0.647-2.065,2.281c-0.942,1.184-3.89,3.568-5.306,4.715
				c-0.323,0.262-0.543,0.438-0.6,0.491l-2.856,2.048C37.53,551.7,37.25,551.7,37.1,551.7z M23.495,539.589
				c0.056,0.061,0.125,0.144,0.216,0.255c0.26,0.314,0.742,0.901,1.743,1.902c1.369,1.368,5.824,5.134,5.869,5.172l2.768,1.975
				c0.909,0.681,2.476,1.648,2.954,1.791c0.373-0.204,1.596-1.065,2.556-1.784l2.809-2.007c0,0.001,0,0.001,0,0.001
				c-0.008,0,0.238-0.202,0.609-0.503c1.28-1.036,4.279-3.463,5.19-4.604c1.611-1.615,1.895-2.013,1.943-2.11
				C51.422,537.718,52,535.93,52,534v-0.31l0.102-0.051c0.143-0.769,0.299-4.26,0.299-15.839c-0.007-0.004-0.028-0.039-0.047-0.077
				c-0.031-0.062-0.068-0.135-0.098-0.218c-0.032-0.005-0.08-0.006-0.156-0.006c-0.284,0.016-0.595,0.024-0.903,0.024
				c-5.83,0-11.061-2.892-13.03-3.98c-0.26-0.143-0.526-0.291-0.642-0.344h-0.132l-0.146-0.146c-0.19-0.027-0.335,0.027-0.494,0.086
				c-0.914,0.703-6.877,4.43-13.271,4.43c-0.516,0-1.03-0.023-1.528-0.071c-0.14,0.002-0.152,0.01-0.199,0.056
				c-0.045,0.046-0.053,0.059-0.053,0.247V534C21.7,535.918,22.271,537.695,23.495,539.589z"/>
		</g>
		<g>
			<path fill="#1A9BFC" d="M32.875,545.533l1.459-11.453l-5.838-0.217l12.242-15.506l-1.565,11.622l6.085-0.217L32.875,545.533z
				 M30.503,532.937l4.962,0.184l-1.14,8.947l8.818-11.229l-5.117,0.182l1.235-9.177L30.503,532.937z"/>
		</g>
	</g>
</g>
<g>
	<g>
		<path fill="#EDF7FF" d="M37,417.8c20.3,0,37,16.6,37,37s-16.7,37-37,37s-37-16.6-37-37C0,434.5,16.4,417.8,37,417.8z"/>
	</g>
	<g>
		<g>
			<path fill="#1A9BFC" d="M45.763,453.85c-0.522,0-1.014-0.229-1.347-0.63l-6.069-6.066c-0.351-0.289-0.574-0.724-0.596-1.192
				c-0.022-0.507,0.189-1.009,0.596-1.415l6.1-6.1c0.776-0.776,2.077-0.762,2.737,0.033l6.07,6.066
				c0.429,0.429,0.643,0.991,0.588,1.545c-0.046,0.471-0.282,0.87-0.664,1.125l-6.024,6.037
				C46.769,453.638,46.275,453.85,45.763,453.85z M45.838,438.85c-0.245,0-0.488,0.107-0.685,0.304l-6.1,6.1
				c-0.206,0.205-0.313,0.44-0.304,0.663c0.009,0.187,0.103,0.359,0.271,0.5l6.133,6.13c0.363,0.429,0.915,0.377,1.293,0l6.101-6.1
				c0.24-0.172,0.288-0.336,0.3-0.453c0.024-0.251-0.087-0.527-0.3-0.74l-6.101-6.1C46.271,438.946,46.065,438.85,45.838,438.85z"/>
		</g>
		<g>
			<path fill="#1A9BFC" d="M49,471.8h-5.9c-2.493,0-4.6-2.106-4.6-4.601v-5.8c0-2.592,2.063-4.7,4.6-4.7H49
				c2.493,0,4.6,2.106,4.6,4.601v5.899C53.6,469.694,51.493,471.8,49,471.8z M43.1,457.7c-1.984,0-3.6,1.66-3.6,3.7v5.8
				c0,1.918,1.682,3.601,3.6,3.601H49c1.918,0,3.6-1.683,3.6-3.601V461.3c0-1.918-1.682-3.601-3.6-3.601H43.1z"/>
		</g>
		<g>
			<path fill="#1A9BFC" d="M30.6,471.8h-5.9c-2.494,0-4.6-2.106-4.6-4.601v-5.8c0-2.592,2.063-4.7,4.6-4.7h5.9
				c2.494,0,4.6,2.106,4.6,4.601v5.899C35.2,469.694,33.094,471.8,30.6,471.8z M24.7,457.7c-1.985,0-3.6,1.66-3.6,3.7v5.8
				c0,1.918,1.682,3.601,3.6,3.601h5.9c1.918,0,3.6-1.683,3.6-3.601V461.3c0-1.918-1.682-3.601-3.6-3.601H24.7z"/>
		</g>
		<g>
			<path fill="#1A9BFC" d="M30.6,453.5h-5.9c-2.494,0-4.6-2.106-4.6-4.6V443c0-2.493,2.106-4.6,4.6-4.6h5.9
				c2.494,0,4.6,2.106,4.6,4.6v5.9C35.2,451.393,33.094,453.5,30.6,453.5z M24.7,439.4c-1.918,0-3.6,1.682-3.6,3.6v5.9
				c0,1.918,1.682,3.6,3.6,3.6h5.9c1.918,0,3.6-1.682,3.6-3.6V443c0-1.918-1.682-3.6-3.6-3.6H24.7z"/>
		</g>
	</g>
</g>
<g>
	<g>
		<path fill="#0099FF" d="M21.6,102.5h-0.1c-0.772,0-1.4-0.628-1.4-1.4v-1.214c-0.113-0.358-0.022-0.608,0.08-0.759
			c0.255-0.376,0.76-0.427,1.22-0.427c1.322,0,1.6,0.598,1.6,1.1v1.3C23,101.872,22.372,102.5,21.6,102.5z M21.09,99.714L21.1,99.8
			v1.3c0,0.224,0.176,0.4,0.4,0.4h0.1c0.224,0,0.4-0.176,0.4-0.4v-1.3c-0.001-0.02-0.105-0.1-0.6-0.1
			C21.258,99.7,21.159,99.706,21.09,99.714z"/>
	</g>
	<g>
		<path fill="#0099FF" d="M4.1,102.6H3.9c-0.772,0-1.4-0.628-1.4-1.4v-1.3c0-1.2,1.129-1.2,1.5-1.2c1.392,0,1.5,0.918,1.5,1.2v1.3
			C5.5,101.972,4.872,102.6,4.1,102.6z M3.517,99.763c0.001,0-0.017,0.036-0.017,0.137v1.3c0,0.225,0.176,0.4,0.4,0.4h0.2
			c0.224,0,0.4-0.176,0.4-0.4v-1.3c0-0.06,0-0.2-0.5-0.2C3.613,99.7,3.53,99.752,3.517,99.763L3.517,99.763z"/>
	</g>
	<g>
		<path fill="#0099FF" d="M20.6,99.7h-16c-2.537,0-4.6-2.063-4.6-4.6v-0.4c0-2.493,2.106-4.6,4.6-4.6h16c2.537,0,4.6,2.063,4.6,4.6
			v0.4C25.2,97.636,23.137,99.7,20.6,99.7z M4.6,91.1c-1.918,0-3.6,1.682-3.6,3.6v0.4c0,1.985,1.615,3.6,3.6,3.6h16
			c1.985,0,3.6-1.615,3.6-3.6v-0.4c0-1.985-1.615-3.6-3.6-3.6H4.6z"/>
	</g>
	<g>
		<path fill="#0099FF" d="M3.776,90.752l-0.953-0.303L4.9,84C4.943,83.942,5.969,82.6,7.6,82.6c1.281,0.245,7.996,0.083,10.483,0
			c0.064,0.028,1.771,0.022,2.485,1.923c0.604,1.612,1.578,5.786,1.619,5.963l-0.974,0.227c-0.01-0.042-1-4.287-1.582-5.838
			c-0.464-1.238-1.493-1.274-1.537-1.275c-0.348,0.012-9.054,0.299-10.593-0.01c-0.878,0.008-1.569,0.737-1.754,0.952L3.776,90.752z
			"/>
	</g>
	<g>
		<path fill="#0099FF" d="M19.7,96.6c-0.821,0-1.7-0.683-1.7-1.7c0-0.874,0.826-1.7,1.7-1.7c0.821,0,1.7,0.683,1.7,1.7
			C21.4,95.869,20.669,96.6,19.7,96.6z M19.7,94.2c-0.327,0-0.7,0.373-0.7,0.7c0,0.413,0.369,0.7,0.7,0.7c0.425,0,0.7-0.275,0.7-0.7
			C20.4,94.487,20.031,94.2,19.7,94.2z"/>
	</g>
	<g>
		<path fill="#0099FF" d="M6,96.6c-0.969,0-1.7-0.731-1.7-1.7c0-0.874,0.826-1.7,1.7-1.7c0.821,0,1.7,0.683,1.7,1.7
			C7.7,95.869,6.969,96.6,6,96.6z M6,94.2c-0.327,0-0.7,0.373-0.7,0.7c0,0.425,0.275,0.7,0.7,0.7s0.7-0.275,0.7-0.7
			C6.7,94.487,6.331,94.2,6,94.2z"/>
	</g>
</g>
<g>
	<g>
		
			<rect x="12.8" y="62.589" transform="matrix(0.8153 0.579 -0.579 0.8153 40.2954 4.3683)" fill="#0099FF" width="1" height="5.522"/>
	</g>
	<g>
		
			<rect x="7.439" y="64.55" transform="matrix(0.5795 0.815 -0.815 0.5795 57.3036 19.0415)" fill="#0099FF" width="5.522" height="1"/>
	</g>
	<g>
		<rect x="11.3" y="67.5" fill="#0099FF" width="1" height="6.3"/>
	</g>
	<g>
		<rect x="6.7" y="69.4" fill="#0099FF" width="9.4" height="1"/>
	</g>
	<g>
		<rect x="6.7" y="66.6" fill="#0099FF" width="9.4" height="1"/>
	</g>
	<g>
		<path fill="#0099FF" d="M11.6,79.3C5.204,79.3,0,74.096,0,67.7c0.105-6.4,5.309-11.6,11.6-11.6c6.396,0,11.6,5.204,11.6,11.6
			C23.2,74.096,17.997,79.3,11.6,79.3z M11.6,57.1C5.851,57.1,1.096,61.859,1,67.708C1,73.545,5.755,78.3,11.6,78.3
			s10.6-4.755,10.6-10.6S17.445,57.1,11.6,57.1z"/>
	</g>
</g>
<g>
	<polygon fill="#0099FF" points="8.801,121.838 4.733,117.44 5.467,116.761 8.798,120.362 13.931,114.762 14.668,115.438 	"/>
</g>
<g>
	<g>
		
			<rect x="12.8" y="139.98" transform="matrix(0.8088 0.5881 -0.5881 0.8088 86.4582 19.4601)" fill="#0099FF" width="1" height="5.44"/>
	</g>
	<g>
		
			<rect x="7.58" y="142" transform="matrix(0.5881 0.8088 -0.8088 0.5881 119.4897 50.3591)" fill="#0099FF" width="5.44" height="1"/>
	</g>
	<g>
		<rect x="11.3" y="145.1" fill="#0099FF" width="1" height="6.2"/>
	</g>
	<g>
		<rect x="6.8" y="146.9" fill="#0099FF" width="9.3" height="1"/>
	</g>
	<g>
		<rect x="6.8" y="144.2" fill="#0099FF" width="9.3" height="1"/>
	</g>
	<g>
		
			<rect x="-0.351" y="151.2" transform="matrix(0.0263 0.9997 -0.9997 0.0263 153.1567 146.1562)" fill="#0099FF" width="3.802" height="1"/>
	</g>
	<g>
		<rect x="21.2" y="137" fill="#0099FF" width="1" height="3.6"/>
	</g>
	<g>
		<path fill="#0099FF" d="M11.5,156.8c-4.548,0-8.592-2.64-10.554-6.891l0.908-0.419c1.796,3.892,5.493,6.31,9.646,6.31
			c5.845,0,10.6-4.755,10.6-10.6h1C23.1,151.596,17.896,156.8,11.5,156.8z M1.1,145.2h-1c0-6.396,5.204-11.6,11.6-11.6
			c4.607,0,8.752,2.75,10.56,7.004l-0.92,0.391c-1.651-3.885-5.435-6.395-9.64-6.395C5.855,134.6,1.1,139.355,1.1,145.2z"/>
	</g>
</g>
<g>
	<g>
		<path fill="#0099FF" d="M4.2,176.2h11.6v1.1H4.2V176.2z"/>
	</g>
	<g>
		<path fill="#0099FF" d="M0,174h1.2v3.2H0V174z"/>
	</g>
	<g>
		<path fill="#0099FF" d="M0,164.6h1.2v3.2H0V164.6z"/>
	</g>
	<g>
		<path fill="#0099FF" d="M4.2,170.9h11.6v1.1H4.2V170.9z"/>
	</g>
	<g>
		<path fill="#0099FF" d="M4.2,165.6h7.4v1.1H4.2V165.6z"/>
	</g>
	<g>
		<path fill="#0099FF" d="M15.8,183H3.4c-1.482,0-2.6-1.118-2.6-2.6v-17.9c0-1.514,1.142-2.7,2.6-2.7h12.4
			c1.482,0,2.6,1.118,2.6,2.6v18C18.4,181.882,17.282,183,15.8,183z M3.4,160.8c-0.897,0-1.6,0.747-1.6,1.7v17.9
			c0,0.927,0.673,1.6,1.6,1.6h12.4c0.927,0,1.6-0.673,1.6-1.6v-18c0-0.927-0.673-1.6-1.6-1.6H3.4z"/>
	</g>
</g>
<g>
	<g>
		<path fill="#0099FF" d="M19,186.5h1v20h-1V186.5z"/>
	</g>
	<g>
		<path fill="#0099FF" d="M13.7,194.9h1.1v11.6h-1.1V194.9z"/>
	</g>
	<g>
		<path fill="#0099FF" d="M8.4,192.8h1.1v13.7H8.4V192.8z"/>
	</g>
	<g>
		<path fill="#0099FF" d="M3.2,199.1h1.1v7.4H3.2V199.1z"/>
	</g>
	<g>
		<path fill="#0099FF" d="M0,207.6h23.2v1.1H0V207.6z"/>
	</g>
</g>
<g>
	<g>
		<path fill="#0099FF" d="M3.6,223.8H12v1.1H3.6V223.8z"/>
	</g>
	<g>
		<path fill="#0099FF" d="M0.5,219.6h23.2v1.1H0.5V219.6z"/>
	</g>
	<g>
		<path fill="#0099FF" d="M0.5,215.4h23.2v1.1H0.5V215.4z"/>
	</g>
	<g>
		<path fill="#0099FF" d="M21.6,229.5h-19c-1.482,0-2.6-1.118-2.6-2.6v-12.6c0-1.482,1.118-2.6,2.6-2.6h19
			c1.482,0,2.6,1.118,2.6,2.6v12.6C24.2,228.382,23.083,229.5,21.6,229.5z M2.6,212.7c-0.927,0-1.6,0.673-1.6,1.6v12.6
			c0,0.927,0.673,1.6,1.6,1.6h19c0.927,0,1.6-0.673,1.6-1.6v-12.6c0-0.927-0.673-1.6-1.6-1.6H2.6z"/>
	</g>
</g>
<g>
	<g>
		<path fill="#0099FF" d="M19.9,249.9h-2v-1h2c1.312,0,2.3-0.946,2.3-2.2c0-1.062-0.924-2.2-2.3-2.2h-2v-1h2
			c1.789,0,3.3,1.465,3.3,3.2C23.2,248.494,21.75,249.9,19.9,249.9z"/>
	</g>
	<g>
		<path fill="#0099FF" d="M2.1,249.9H0v-1h2.1c1.311,0,2.3-0.946,2.3-2.2c0-1.062-0.924-2.2-2.3-2.2H0v-1h2.1
			c1.789,0,3.3,1.465,3.3,3.2C5.4,248.494,3.951,249.9,2.1,249.9z"/>
	</g>
	<g>
		<path fill="#0099FF" d="M7.4,256.1h-1V254c0-1.765,1.436-3.2,3.2-3.2c1.764,0,3.2,1.436,3.2,3.2v1.6h-1V254
			c0-1.082-0.823-2.2-2.2-2.2c-1.082,0-2.2,0.823-2.2,2.2V256.1z"/>
	</g>
	<g>
		<path fill="#0099FF" d="M12.8,238.2h-1v-2c0-1.081-0.823-2.2-2.2-2.2c-1.082,0-2.2,0.823-2.2,2.2v2h-1v-2
			c0-1.764,1.436-3.2,3.2-3.2c1.764,0,3.2,1.436,3.2,3.2V238.2z"/>
	</g>
	<g>
		<path fill="#0099FF" d="M18.9,256.1h-7.1v-1h6.1v-5.5h1V256.1z M7.1,256.1h-7v-6.5h1v5.5h6V256.1z M1,244.3H0v-7.1h7v1H1V244.3z
			 M18.9,244.2h-1v-6h-5.6v-1h6.6V244.2z"/>
	</g>
</g>
<g>
	<g>
		<polygon fill="#0099FF" points="15.86,281.287 12.089,278.292 12.711,277.508 15.739,279.914 20.726,274.269 21.475,274.931 		"/>
	</g>
	<g>
		<path fill="#0099FF" d="M4.7,273.8v-1.1h10.5v1.1H4.7z"/>
	</g>
	<g>
		<path fill="#0099FF" d="M4.7,269.6v-1.1h10.5v1.1H4.7z"/>
	</g>
	<g>
		<path fill="#0099FF" d="M4.7,265.4v-1h10.5v1.1H4.7V265.4z"/>
	</g>
	<g>
		<path fill="#0099FF" d="M10,280.7H1.5c-0.772,0-1.4-0.628-1.4-1.4v-18.1c0-0.772,0.628-1.4,1.4-1.4h17c0.772,0,1.4,0.628,1.4,1.4
			v11.2h-1v-11.2c0-0.224-0.176-0.4-0.4-0.4h-17c-0.224,0-0.4,0.176-0.4,0.4v18.1c0,0.224,0.176,0.4,0.4,0.4H10V280.7z"/>
	</g>
</g>
<g>
	<g>
		<path fill="#0099FF" d="M9.9,301.1H8.8v-9.5h1.1C9.9,291.6,9.9,301.1,9.9,301.1z"/>
	</g>
	<g>
		<path fill="#0099FF" d="M4.6,296.9v-1.1h9.5v1.1H4.6z"/>
	</g>
	<g>
		<path fill="#0099FF" d="M9.8,309c-0.767,0-1.557-0.265-2.112-0.709l-1.691-1.293c-0.075-0.068-0.186-0.167-0.352-0.317
			c-0.76-0.685-2.54-2.288-3.121-2.951c-0.858-0.857-1.126-1.215-1.271-1.506c-0.788-1.174-1.153-2.37-1.153-3.823v-9.8
			c0-0.238,0-0.507,0.247-0.754C0.593,287.6,0.868,287.6,1,287.6c2.357,0.227,4.992-0.608,7.668-2.415
			c0.053-0.036,0.096-0.064,0.131-0.086c0.259-0.214,0.653-0.232,1.025-0.046l0.13,0.094c0.54,0.436,4.16,2.713,7.71,2.455
			l0.073,0.997c-4.037,0.302-7.721-2.186-8.384-2.666l-0.125,0.081c-2.814,1.901-5.619,2.801-8.127,2.597v9.789
			c0,1.261,0.304,2.254,1.016,3.323c0.107,0.206,0.301,0.488,1.137,1.324c0.564,0.643,2.378,2.276,3.061,2.892
			c0.194,0.174,0.319,0.288,0.34,0.31l1.649,1.255C8.69,307.812,9.261,308,9.8,308V309z"/>
	</g>
</g>
<g>
	<path fill="#0099FF" d="M9.1,308.9v-1c0.539,0,1.109-0.188,1.487-0.491l1.706-1.304c-0.001,0-0.001,0.001-0.001,0.001
		c-0.003,0,0.106-0.099,0.268-0.244c0.667-0.599,2.438-2.188,3.066-2.895c0.871-0.873,1.077-1.193,1.126-1.292
		c0.738-1.269,1.047-2.27,1.047-3.376v-9.79c-2.518,0.148-5.319-0.755-8.128-2.599l-0.203-0.137c0.049,0.04,0.07,0.04,0.12,0.051
		l-0.513-0.872c0.372-0.187,0.763-0.167,1.022,0.044c0.032,0.02,0.073,0.046,0.122,0.078c2.639,1.732,5.353,2.591,7.643,2.427
		c0.18,0.006,0.445-0.001,0.69,0.245c0.246,0.246,0.246,0.516,0.246,0.753v9.8c0,1.296-0.349,2.448-1.167,3.852
		c-0.144,0.289-0.567,0.79-1.279,1.501c-0.645,0.727-2.383,2.287-3.125,2.953c-0.151,0.135-0.251,0.225-0.278,0.25l-1.747,1.34
		C10.657,308.635,9.867,308.9,9.1,308.9z"/>
</g>
<g>
	<path fill="#0099FF" d="M9.8,130.1c-0.767,0-1.557-0.265-2.112-0.709l-1.691-1.294c-0.074-0.066-0.181-0.162-0.341-0.307
		c-0.762-0.686-2.548-2.294-3.131-2.96c-0.858-0.857-1.126-1.215-1.271-1.506C0.465,122.15,0.1,120.954,0.1,119.5v-9.8
		c0-0.238,0-0.507,0.247-0.753C0.592,108.7,0.868,108.7,1,108.7c2.358,0.229,4.992-0.607,7.667-2.414
		c0.053-0.036,0.098-0.065,0.132-0.087c0.259-0.213,0.653-0.233,1.025-0.046l0.129,0.093c0.54,0.437,4.155,2.708,7.711,2.456
		l0.073,0.997c-4.027,0.295-7.722-2.187-8.384-2.665l-0.126,0.082c-2.814,1.9-5.62,2.802-8.126,2.596v9.79
		c0,1.261,0.304,2.254,1.016,3.323c0.107,0.206,0.301,0.488,1.137,1.324c0.567,0.646,2.386,2.284,3.07,2.9
		c0.188,0.169,0.309,0.279,0.33,0.299l1.65,1.257C8.69,128.912,9.261,129.1,9.8,129.1V130.1z"/>
</g>
<g>
	<path fill="#0099FF" d="M9.1,130.1v-1c0.539,0,1.109-0.188,1.487-0.491l1.706-1.305c-0.001,0.001-0.001,0.001-0.001,0.001
		c-0.003,0,0.103-0.095,0.259-0.235c0.668-0.6,2.445-2.193,3.076-2.902c0.871-0.873,1.078-1.194,1.127-1.292
		c0.738-1.268,1.046-2.27,1.046-3.376v-9.791c-2.51,0.141-5.318-0.755-8.127-2.598l-0.204-0.138c0.049,0.039,0.069,0.046,0.12,0.051
		l-0.513-0.872c0.372-0.187,0.763-0.167,1.022,0.044c0.033,0.02,0.074,0.046,0.124,0.079c2.639,1.731,5.353,2.589,7.642,2.425
		c0.18,0.002,0.445,0,0.69,0.245c0.246,0.247,0.246,0.516,0.246,0.753v9.8c0,1.296-0.349,2.448-1.167,3.852
		c-0.144,0.289-0.567,0.79-1.279,1.501c-0.648,0.73-2.391,2.294-3.135,2.961c-0.146,0.131-0.243,0.218-0.269,0.243l-1.746,1.339
		C10.657,129.835,9.867,130.1,9.1,130.1z"/>
</g>
<g>
	<g>
		<rect x="10" y="325.4" fill="#0099FF" width="6.2" height="1"/>
	</g>
	<g>
		<rect x="10" y="319.5" fill="#0099FF" width="1" height="6.4"/>
	</g>
	<g>
		<path fill="#0099FF" d="M21.9,325.569l-2.18-2.544c-0.18-0.209-0.155-0.525,0.055-0.705c0.21-0.178,0.525-0.156,0.705,0.055
			l1.42,1.657l1.42-1.657c0.181-0.21,0.496-0.233,0.705-0.055c0.21,0.18,0.234,0.496,0.055,0.705L21.9,325.569z"/>
	</g>
	<g>
		<path fill="#0099FF" d="M11.2,335.7c-6.176,0-11.2-5.203-11.2-11.6s5.024-11.6,11.2-11.6c6.071,0,11.2,5.404,11.2,11.8h-1
			c0-5.854-4.671-10.8-10.2-10.8c-5.625,0-10.2,4.755-10.2,10.6s4.576,10.6,10.2,10.6c3.475,0,6.798-1.901,8.673-4.962l0.853,0.523
			C18.67,333.616,15.021,335.7,11.2,335.7z"/>
	</g>
</g>
<g>
	<g>
		<path fill="#0099FF" d="M13.204,362.158L6.415,346.61l6.788-7.773l6.679,7.774L13.204,362.158z M7.585,346.79l5.611,12.853
			l5.521-12.854l-5.52-6.425L7.585,346.79z"/>
	</g>
	<g>
		<rect x="0.8" y="346.2" fill="#0099FF" width="25" height="1"/>
	</g>
	<g>
		<path fill="#0099FF" d="M13.199,362.167l-13.25-15.458l6.413-7.908h13.264l6.937,7.896L13.199,362.167z M1.251,346.691
			l11.951,13.942l12.035-13.931l-6.063-6.902H6.838L1.251,346.691z"/>
	</g>
</g>
<g>
	<g>
		<polygon fill="#0099FF" points="11.349,378.288 8.334,375.04 9.066,374.36 11.25,376.712 13.194,374.008 14.006,374.592 		"/>
	</g>
	<g>
		<rect x="10.6" y="377.6" fill="#0099FF" width="1" height="4.5"/>
	</g>
	<g>
		<rect x="8" y="379.4" fill="#0099FF" width="6.5" height="1"/>
	</g>
	<g>
		<rect x="8" y="376.9" fill="#0099FF" width="6.5" height="1"/>
	</g>
	<g>
		<path fill="#0099FF" d="M17.022,372.768l-0.844-0.536c0.354-0.561,1.241-2.348,0.681-3.19c-0.385-0.58-1.482-0.735-3.176-0.448
			l-0.167-0.986c2.173-0.367,3.539-0.079,4.177,0.883C18.711,370.023,17.198,372.492,17.022,372.768z"/>
	</g>
	<g>
		<path fill="#0099FF" d="M4.353,372.024c-0.049-0.098-1.185-2.41-0.125-3.817c0.683-0.905,2.049-1.176,4.064-0.798l-0.184,0.982
			c-1.587-0.294-2.653-0.15-3.082,0.417c-0.574,0.762-0.036,2.257,0.22,2.769L4.353,372.024z"/>
	</g>
	<g>
		<path fill="#0099FF" d="M11.7,387.5c-5.94,0-10.15-2.392-11.264-6.396c-0.998-3.588,0.85-7.408,4.706-9.731l0.516,0.857
			c-3.46,2.084-5.132,5.463-4.258,8.606c0.986,3.547,4.836,5.664,10.3,5.664c4.844,0,8.033-2.013,8.75-5.521
			c0.699-3.425-1.161-7.246-4.146-8.519l0.393-0.92c3.399,1.449,5.523,5.773,4.733,9.639C21.042,383.079,19.316,387.5,11.7,387.5z"
			/>
	</g>
	<g>
		<path fill="#0099FF" d="M13.674,368.561c-0.777-1.27-1.646-1.938-2.583-1.988c-1.688-0.115-3.18,1.813-3.195,1.832l-0.793-0.608
			c0.073-0.097,1.809-2.342,4.037-2.223c1.287,0.067,2.426,0.896,3.386,2.466L13.674,368.561z"/>
	</g>
</g>
<g>
	<g>
		<path fill="#0099FF" d="M12.2,399.4c-0.276,0-0.5-0.224-0.5-0.5c0-0.147,0.049-0.26,0.1-0.337v-0.023l0.093-0.131
			c0.429-0.602,0.707-1.508,0.707-2.309c0-2.481-2.019-4.5-4.5-4.5s-4.5,2.019-4.5,4.5c0,0.763,0.2,1.567,0.534,2.151
			c0.137,0.239,0.054,0.545-0.186,0.682c-0.241,0.138-0.544,0.055-0.683-0.186C2.843,398.008,2.6,397.044,2.6,396.1
			c0-3.032,2.467-5.5,5.5-5.5s5.5,2.468,5.5,5.5c0,0.975-0.318,2.039-0.835,2.806c-0.027,0.078-0.066,0.138-0.101,0.182
			C12.59,399.27,12.41,399.4,12.2,399.4z"/>
	</g>
	<g>
		<path fill="#0099FF" d="M17.6,414.8H7.271l-0.065-0.425c-0.929-6.077-4.524-7.205-5.706-7.576
			c-0.196-0.062-0.341-0.111-0.424-0.152l-0.103-0.048c-0.402-0.185-1.471-0.675-0.733-2.396c0.317-0.611,0.958-1.3,2.301-1.3
			c1.361,0,2.87,0.717,3.458,1.026v-8.897l0.102-0.135c0.66-0.868,1.383-1.309,2.15-1.309c1.295,0,2.134,1.287,2.169,1.342
			l0.079,0.123v5.94c1.017-0.013,3.367-0.038,5.219-0.038c1.933,0,2.377,0.027,2.543,0.048c0.971,0.108,1.476,1.034,1.621,1.564
			L19.9,402.7v7.76l-0.091,0.129c-1.131,1.603-1.719,3.816-1.725,3.838l-0.098,0.374H17.6z M8.125,413.8h9.1
			c0.219-0.717,0.772-2.323,1.676-3.656v-7.366c-0.062-0.176-0.294-0.729-0.755-0.781c-0.127-0.016-0.603-0.041-2.426-0.041
			c-2.427,0-5.712,0.044-5.712,0.044L9.5,402.006v-6.646c-0.184-0.236-0.664-0.772-1.248-0.772c-0.405,0-0.826,0.264-1.252,0.784
			V405H5.865l-0.117-0.068c-0.018-0.01-1.779-1.028-3.206-1.028c-0.913,0-1.235,0.416-1.398,0.729
			c-0.337,0.79-0.13,0.886,0.247,1.059l0.133,0.062c0.055,0.026,0.15,0.053,0.276,0.093C3.1,406.254,6.999,407.476,8.125,413.8z"/>
	</g>
</g>
</svg>
